<svg width="10" height="11" viewBox="0 0 10 11" fill="none" xmlns="http://www.w3.org/2000/svg">
<path fill-rule="evenodd" clip-rule="evenodd" d="M10 5.5C10 5.68941 9.93416 5.87106 9.81696 6.00499C9.69976 6.13892 9.54081 6.21416 9.37507 6.21416H2.13463L4.81808 9.27932C4.87618 9.34572 4.92227 9.42455 4.95372 9.5113C4.98516 9.59805 5.00135 9.69104 5.00135 9.78494C5.00135 9.87884 4.98516 9.97183 4.95372 10.0586C4.92227 10.1453 4.87618 10.2242 4.81808 10.2906C4.75998 10.357 4.691 10.4096 4.61508 10.4456C4.53917 10.4815 4.4578 10.5 4.37563 10.5C4.29346 10.5 4.21209 10.4815 4.13618 10.4456C4.06026 10.4096 3.99128 10.357 3.93318 10.2906L0.183597 6.00562C0.125399 5.93928 0.0792255 5.86048 0.0477209 5.77371C0.0162163 5.68695 0 5.59394 0 5.5C0 5.40606 0.0162163 5.31305 0.0477209 5.22629C0.0792255 5.13952 0.125399 5.06072 0.183597 4.99438L3.93318 0.709436C3.99128 0.643037 4.06026 0.590366 4.13618 0.554431C4.21209 0.518496 4.29346 0.5 4.37563 0.5C4.4578 0.5 4.53917 0.518496 4.61508 0.554431C4.691 0.590366 4.75998 0.643037 4.81808 0.709436C4.93542 0.843536 5.00135 1.02541 5.00135 1.21506C5.00135 1.30896 4.98516 1.40195 4.95372 1.4887C4.92227 1.57546 4.87618 1.65428 4.81808 1.72068L2.13463 4.78584H9.37507C9.54081 4.78584 9.69976 4.86108 9.81696 4.99502C9.93416 5.12895 10 5.31059 10 5.5Z" fill="#8A8CA3"/>
</svg>
